<svg width="1917" height="679" viewBox="0 0 1917 679" fill="none" xmlns="http://www.w3.org/2000/svg">
<g opacity="0.04">
<path d="M299.327 2.39435C360.487 2.39435 406.038 16.676 435.981 45.2394C465.924 73.8028 480.895 116.013 480.895 171.87C480.895 201.703 473.569 228.045 458.916 250.896C444.263 273.112 422.602 290.567 393.934 303.262C365.265 315.322 329.907 321.352 287.86 321.352L291.682 278.507C311.432 278.507 334.048 281.363 359.532 287.076C385.015 292.154 409.542 301.675 433.114 315.639C457.323 328.969 477.073 348.011 492.363 372.766C508.29 396.886 516.253 427.989 516.253 466.073C516.253 507.966 509.245 542.242 495.229 568.901C481.851 595.561 464.013 616.19 441.715 630.789C419.417 645.388 395.526 655.544 370.043 661.256C344.56 666.334 320.033 668.873 296.461 668.873H58.5105C41.9464 668.873 27.9311 663.478 16.4637 652.687C5.63329 641.262 0.217773 627.298 0.217773 610.794V60.4732C0.217773 43.9699 5.63329 30.323 16.4637 19.5324C27.9311 8.10704 41.9464 2.39435 58.5105 2.39435H299.327ZM282.126 114.744H112.026L124.448 99.5098V271.842L112.981 263.273H284.993C303.468 263.273 320.033 257.243 334.685 245.183C349.338 233.123 356.665 215.668 356.665 192.817C356.665 165.523 349.657 145.846 335.641 133.786C322.262 121.091 304.424 114.744 282.126 114.744ZM289.771 375.623H115.848L124.448 368.006V568.901L114.892 559.38H296.461C325.766 559.38 349.02 551.763 366.221 536.53C383.422 520.661 392.022 497.176 392.022 466.073C392.022 437.51 386.289 416.881 374.821 404.186C363.354 391.491 349.657 383.557 333.73 380.383C317.803 377.209 303.15 375.623 289.771 375.623Z" fill="white"/>
<path d="M851.96 678.394C797.808 678.394 750.664 667.286 710.528 645.07C671.029 622.22 640.449 591.435 618.788 552.716C597.765 513.996 587.253 470.199 587.253 421.324C587.253 364.197 598.72 315.639 621.655 275.651C645.227 235.027 675.807 203.925 713.395 182.344C750.983 160.762 790.8 149.972 832.848 149.972C865.339 149.972 895.919 156.637 924.588 169.966C953.893 183.296 979.695 201.703 1001.99 225.189C1024.29 248.039 1041.81 274.699 1054.55 305.166C1067.93 335.634 1074.62 368.006 1074.62 402.282C1073.98 417.516 1067.93 429.893 1056.46 439.414C1045 448.935 1031.62 453.696 1016.33 453.696H651.28L622.611 358.485H973.324L952.301 377.527V351.82C951.027 333.412 944.337 316.909 932.233 302.31C920.765 287.711 906.112 276.285 888.274 268.034C871.072 259.147 852.597 254.704 832.848 254.704C813.735 254.704 795.897 257.243 779.333 262.321C762.769 267.399 748.435 275.968 736.33 288.028C724.226 300.088 714.669 316.274 707.661 336.586C700.653 356.898 697.15 382.605 697.15 413.707C697.15 447.983 704.157 477.181 718.173 501.301C732.826 524.787 751.301 542.877 773.599 555.572C796.534 567.632 820.744 573.662 846.227 573.662C869.799 573.662 888.593 571.758 902.608 567.949C916.624 564.141 927.773 559.698 936.055 554.62C944.974 548.907 952.938 544.146 959.945 540.338C971.413 534.625 982.243 531.769 992.437 531.769C1006.45 531.769 1017.92 536.53 1026.84 546.051C1036.4 555.572 1041.17 566.68 1041.17 579.375C1041.17 596.513 1032.25 612.064 1014.42 626.028C997.852 639.992 974.598 652.37 944.656 663.161C914.713 673.316 883.814 678.394 851.96 678.394Z" fill="white"/>
<path d="M1140.63 589.848C1134.26 580.962 1131.4 569.536 1132.03 555.572C1132.67 541.608 1140.95 529.547 1156.88 519.392C1167.07 513.044 1177.9 510.505 1189.37 511.775C1200.84 512.409 1211.99 518.122 1222.82 528.913C1241.29 547.32 1260.72 561.602 1281.11 571.758C1301.5 581.914 1326.98 586.992 1357.56 586.992C1367.11 586.357 1377.63 585.087 1389.09 583.183C1400.56 580.644 1410.44 575.566 1418.72 567.949C1427.64 559.698 1432.1 547.32 1432.1 530.817C1432.1 516.853 1427.32 505.745 1417.76 497.493C1408.21 489.241 1395.47 482.259 1379.54 476.546C1364.25 470.834 1347.05 465.439 1327.93 460.361C1308.18 454.648 1287.8 448.3 1266.77 441.318C1246.39 434.336 1227.59 425.45 1210.39 414.659C1193.19 403.234 1179.18 388.317 1168.35 369.91C1157.52 351.502 1152.1 328.334 1152.1 300.406C1152.1 268.669 1161.02 241.692 1178.86 219.476C1196.7 197.26 1219.63 180.122 1247.66 168.062C1276.33 156.002 1306.27 149.972 1337.49 149.972C1357.24 149.972 1377.94 152.511 1399.61 157.589C1421.27 162.032 1441.97 169.649 1461.72 180.439C1481.47 190.595 1498.03 204.242 1511.41 221.38C1518.42 230.901 1522.56 242.327 1523.84 255.656C1525.11 268.986 1519.06 281.046 1505.68 291.837C1496.12 299.454 1484.98 302.945 1472.23 302.31C1459.49 301.04 1448.98 296.597 1440.7 288.98C1429.87 275.016 1415.21 263.908 1396.74 255.656C1378.9 247.405 1358.2 243.279 1334.62 243.279C1325.07 243.279 1314.56 244.548 1303.09 247.087C1292.26 248.992 1282.7 253.752 1274.42 261.369C1266.14 268.351 1262 279.777 1262 295.645C1262 310.244 1266.77 321.987 1276.33 330.873C1285.89 339.125 1298.63 346.107 1314.56 351.82C1331.12 356.898 1348.64 361.976 1367.11 367.054C1386.23 372.131 1405.66 378.161 1425.41 385.144C1445.16 392.126 1463.31 401.33 1479.88 412.755C1496.44 424.18 1509.82 439.097 1520.01 457.504C1530.21 475.277 1535.3 498.128 1535.3 526.056C1535.3 558.428 1525.75 586.039 1506.64 608.89C1487.52 631.741 1463.63 649.196 1434.96 661.256C1406.3 672.682 1376.99 678.394 1347.05 678.394C1309.46 678.394 1271.87 672.047 1234.28 659.352C1196.7 646.022 1165.48 622.854 1140.63 589.848Z" fill="white"/>
<path d="M1637 169.014H1863.49C1878.78 169.014 1891.52 174.092 1901.71 184.248C1911.9 194.404 1917 207.099 1917 222.332C1917 236.931 1911.9 249.309 1901.71 259.465C1891.52 268.986 1878.78 273.746 1863.49 273.746H1637C1621.71 273.746 1608.97 268.669 1598.78 258.513C1588.59 248.357 1583.49 235.662 1583.49 220.428C1583.49 205.829 1588.59 193.769 1598.78 184.248C1608.97 174.092 1621.71 169.014 1637 169.014ZM1739.26 0C1755.82 0 1769.2 5.71268 1779.39 17.138C1790.22 27.9287 1795.64 41.5756 1795.64 58.0789V531.769C1795.64 540.655 1797.23 547.955 1800.41 553.668C1804.24 559.38 1809.02 563.506 1814.75 566.045C1821.12 568.584 1827.81 569.854 1834.82 569.854C1842.46 569.854 1849.47 568.584 1855.84 566.045C1862.21 562.871 1869.54 561.285 1877.82 561.285C1886.74 561.285 1894.7 565.41 1901.71 573.662C1909.35 581.914 1913.18 593.339 1913.18 607.938C1913.18 625.711 1903.3 640.31 1883.55 651.735C1864.44 663.161 1843.74 668.873 1821.44 668.873C1808.06 668.873 1793.09 667.921 1776.52 666.017C1760.6 663.478 1745.31 658.083 1730.65 649.831C1716.64 640.945 1704.85 627.615 1695.3 609.842C1685.74 592.07 1680.96 567.632 1680.96 536.53V58.0789C1680.96 41.5756 1686.38 27.9287 1697.21 17.138C1708.68 5.71268 1722.69 0 1739.26 0Z" fill="white"/>
</g>
</svg>
